<svg width="415" height="111" viewBox="0 0 415 111" fill="none" xmlns="http://www.w3.org/2000/svg">
<g clip-path="url(#clip0_25_2)">
<path d="M35.0254 99.9411C31.6193 103.329 27.4539 105.047 22.6448 105.047C17.8369 105.047 13.6715 103.329 10.2669 99.9426C6.87854 96.5365 5.16113 92.3711 5.16113 87.5631C5.16113 82.7541 6.87854 78.5898 10.2654 75.1837C13.6715 71.7949 17.8369 70.0783 22.6448 70.0783C27.4539 70.0783 31.6193 71.7949 35.0239 75.1821C38.4108 78.5898 40.1297 82.7552 40.1297 87.5631C40.1297 92.3688 38.4108 96.5365 35.0254 99.9411ZM22.6743 64.5458C16.3602 64.5458 10.8879 66.8192 6.40988 71.2987C1.9319 75.7729 -0.349804 81.2453 -0.36908 87.5631C-0.36908 93.8776 1.90204 99.3481 6.3804 103.828C10.8565 108.307 16.3285 110.576 22.6448 110.576C28.9604 110.576 34.4328 108.307 38.9127 103.828C43.3888 99.35 45.6599 93.8776 45.6599 87.565C45.6792 81.2475 43.4186 75.7729 38.9403 71.2987C34.4608 66.8192 28.9888 64.5458 22.6743 64.5458ZM74.1798 64.8145C68.5567 64.8145 63.683 67.0943 59.694 71.5882C55.7422 76.0239 53.6993 81.4543 53.6203 87.7298V110.135H59.061V87.7211C59.1366 82.9925 60.6729 78.9057 63.6266 75.5714C66.5626 72.2984 70.1233 70.6395 74.2116 70.6395C78.295 70.6395 81.8451 72.3089 84.7602 75.5979C87.7173 78.953 89.2447 83.0606 89.2995 87.7982V110.135H94.742V87.7929C94.6838 81.4943 92.6492 76.0537 88.7012 71.6199C84.7073 67.1034 79.8227 64.8145 74.1798 64.8145ZM125.863 70.0787C130.672 70.0787 134.837 71.7961 138.239 75.1776C140.324 77.3032 141.833 79.8518 142.725 82.7529L142.864 83.2019H148.587L148.386 82.4075C147.275 78.0576 145.181 74.32 142.157 71.2976C137.679 66.8181 132.207 64.5469 125.893 64.5469C119.577 64.5469 114.104 66.8181 109.628 71.2976C105.149 75.7759 102.866 81.2479 102.847 87.5643C102.847 93.8764 105.119 99.3488 109.599 103.829C114.073 108.306 119.547 110.576 125.863 110.576C132.179 110.576 137.651 108.306 142.127 103.83C144.972 101.005 147.015 97.4916 148.203 93.387L148.438 92.5733H142.703L142.555 93.0015C141.643 95.6589 140.191 97.995 138.244 99.9415C134.837 103.331 130.672 105.048 125.863 105.048C121.055 105.048 116.89 103.331 113.485 99.9437C110.095 96.5372 108.377 92.3714 108.377 87.5643C108.377 82.7548 110.095 78.589 113.484 75.1848C116.89 71.7961 121.055 70.0787 125.863 70.0787ZM166.922 75.1852C170.328 71.7964 174.495 70.079 179.303 70.079C184.112 70.079 188.276 71.7965 191.679 75.1799C192.628 76.1406 193.371 77.0164 193.903 77.7915H164.701C165.235 77.0164 165.978 76.1406 166.922 75.1852ZM202.029 83.1127L201.824 82.3183C200.715 78.0266 198.619 74.3185 195.597 71.296C191.118 66.8184 185.645 64.5473 179.333 64.5473C173.019 64.5473 167.546 66.8184 163.066 71.296C158.587 75.7744 156.307 81.2468 156.289 87.5646C156.289 93.8768 158.559 99.3496 163.037 103.829C167.515 108.307 172.987 110.576 179.303 110.576C185.619 110.576 191.091 108.307 195.567 103.831C198.411 101.005 200.454 97.4919 201.643 93.3859L201.878 92.5736H196.141L195.993 93.0034C195.083 95.6574 193.633 97.9916 191.682 99.9422C188.276 103.331 184.112 105.048 179.303 105.048C174.495 105.048 170.328 103.331 166.925 99.9441C163.537 96.538 161.82 92.3718 161.82 87.5646C161.82 85.9016 161.986 84.4284 162.312 83.1725L202.029 83.1127ZM258.428 64.3179C254.94 64.3179 251.691 65.27 248.769 67.1503C246.636 68.5219 244.983 70.0477 243.85 71.6914C242.707 70.0477 241.057 68.5234 238.935 67.1503C236.017 65.27 232.759 64.3179 229.251 64.3179C224.447 64.3179 220.269 66.0206 216.828 69.3794C213.376 72.7262 211.596 76.8618 211.532 81.6799V110.513H217.852V81.6924C217.885 78.6544 219.031 76.0144 221.255 73.8434C223.459 71.6755 226.15 70.5757 229.251 70.5757C232.372 70.5757 235.071 71.6755 237.277 73.8453C239.48 76.0129 240.627 78.6525 240.68 81.6799V110.513H246.998V81.6973C247.051 78.6544 248.198 76.0129 250.397 73.8468C252.623 71.6755 255.324 70.5757 258.428 70.5757C261.531 70.5757 264.232 71.6755 266.456 73.8453C268.659 76.0129 269.805 78.6491 269.857 81.6799V110.513H276.147V81.7661C276.124 76.9566 274.363 72.7927 270.913 69.3809C267.47 66.0206 263.269 64.3179 258.428 64.3179ZM319.825 99.63C316.502 102.934 312.44 104.609 307.752 104.609C303.065 104.609 299.003 102.936 295.685 99.6368C292.382 96.3131 290.705 92.2505 290.705 87.5627C290.705 82.8776 292.38 78.8158 295.681 75.497C299.003 72.1925 303.065 70.5156 307.752 70.5156C312.44 70.5156 316.502 72.1907 319.821 75.4921C323.123 78.8101 324.8 82.8742 324.8 87.5627C324.8 92.2528 323.123 96.3146 319.825 99.63ZM307.782 64.1104C301.348 64.1104 295.772 66.4254 291.209 70.9876C286.645 75.5476 284.32 81.1255 284.301 87.5627C284.301 93.9997 286.615 99.5771 291.179 104.136C295.742 108.701 301.318 111.015 307.752 111.015C314.187 111.015 319.765 108.701 324.33 104.136C328.892 99.5737 331.205 93.9978 331.205 87.5677C331.227 81.1292 328.922 75.551 324.358 70.9876C319.795 66.4254 314.217 64.1104 307.782 64.1104ZM360.526 64.3772C354.768 64.3772 349.783 66.7066 345.712 71.2983C341.687 75.8133 339.605 81.3435 339.522 87.74V110.571H345.843V87.7275C345.919 83.1078 347.417 79.1159 350.297 75.8659C353.147 72.6892 356.599 71.0791 360.554 71.0791C361.75 71.0791 362.924 71.2246 364.037 71.516L365.383 71.8686V64.9631L364.53 64.7828C363.246 64.5141 361.896 64.3772 360.526 64.3772ZM380.117 75.4955C383.439 72.1925 387.5 70.5175 392.19 70.5175C396.88 70.5175 400.939 72.191 404.255 75.4898C404.913 76.158 405.471 76.7828 405.924 77.3542H378.458C378.913 76.7779 379.467 76.1546 380.117 75.4955ZM408.468 92.8632C407.579 95.4499 406.165 97.7304 404.263 99.6319C400.939 102.936 396.878 104.611 392.19 104.611C387.5 104.611 383.439 102.936 380.123 99.6353C376.818 96.3131 375.141 92.2528 375.141 87.5627C375.141 86.0861 375.278 84.7598 375.545 83.6109L414.92 83.5534H415.484L415.139 82.2094C414.007 77.8441 411.875 74.0695 408.795 70.988C404.231 66.4257 398.651 64.1089 392.22 64.1089C385.788 64.1089 380.21 66.4257 375.645 70.988C371.081 75.5518 368.757 81.1255 368.738 87.5627C368.738 93.9997 371.051 99.5771 375.615 104.138C380.177 108.703 385.753 111.016 392.19 111.016C398.627 111.016 404.203 108.703 408.763 104.141C411.659 101.267 413.741 97.6885 414.949 93.5083L415.349 92.1352H408.716L408.468 92.8632Z" fill="#2B2A29"/>
<path fill-rule="evenodd" clip-rule="evenodd" d="M151.563 3.20067C207.522 -11.6037 200.349 46.4256 208.508 30.7349C210.229 27.446 211.193 21.791 212.935 17.6165C216.583 8.95916 221.451 12.1461 224.911 18.0274C229.336 25.5131 233.951 35.4034 242.529 23.0455C255.681 4.14631 262.876 8.77321 271.244 31.3941C264.07 -4.30434 241.251 11.8588 237.749 17.7798C228.52 1.10303 217.759 -3.62553 202.992 15.3122C200.686 11.9408 187.785 -8.29476 151.563 3.20067ZM169.957 32.3189C177.424 32.3189 183.444 26.396 183.444 19.0959C183.444 11.7957 177.424 5.87469 169.957 5.87469C162.512 5.87469 156.471 11.7957 156.471 19.0959C156.471 26.396 162.512 32.3189 169.957 32.3189Z" fill="#2B2A29"/>
</g>
<defs>
<clipPath id="clip0_25_2">
<rect width="415" height="111" fill="white"/>
</clipPath>
</defs>
</svg>
